<mxfile host="app.diagrams.net" modified="2021-02-04T14:24:02.967Z" agent="5.0 (Windows NT 10.0; Win64; x64) AppleWebKit/537.36 (KHTML, like Gecko) Chrome/88.0.4324.104 Safari/537.36" etag="x0osW90hbWpwJ1lqlYIN" version="14.2.9" type="github" pages="6">
  <diagram id="EkO1UPS0P1zs4zoCipNW" name="UseCase:Igranje Covjeceneljutise">
    <mxGraphModel dx="898" dy="482" grid="1" gridSize="10" guides="1" tooltips="1" connect="1" arrows="1" fold="1" page="1" pageScale="1" pageWidth="827" pageHeight="1169" math="0" shadow="0">
      <root>
        <mxCell id="0" />
        <mxCell id="1" parent="0" />
        <mxCell id="tyYHr8PMdlcGtiCUZPpv-1" value="Actor" style="shape=umlActor;verticalLabelPosition=bottom;verticalAlign=top;html=1;" parent="1" vertex="1">
          <mxGeometry x="60" y="210" width="40" height="60" as="geometry" />
        </mxCell>
        <mxCell id="tyYHr8PMdlcGtiCUZPpv-2" value="Igranje Čovječe ne ljuti se" style="ellipse;whiteSpace=wrap;html=1;" parent="1" vertex="1">
          <mxGeometry x="190" y="200" width="140" height="70" as="geometry" />
        </mxCell>
        <mxCell id="tyYHr8PMdlcGtiCUZPpv-3" value="" style="endArrow=classic;startArrow=classic;html=1;" parent="1" source="tyYHr8PMdlcGtiCUZPpv-2" edge="1">
          <mxGeometry width="50" height="50" relative="1" as="geometry">
            <mxPoint x="220" y="450" as="sourcePoint" />
            <mxPoint x="100" y="241" as="targetPoint" />
          </mxGeometry>
        </mxCell>
        <mxCell id="tyYHr8PMdlcGtiCUZPpv-4" value="Start Game" style="ellipse;whiteSpace=wrap;html=1;" parent="1" vertex="1">
          <mxGeometry x="460" y="30" width="140" height="70" as="geometry" />
        </mxCell>
        <mxCell id="tyYHr8PMdlcGtiCUZPpv-6" value="Tip igrača" style="ellipse;whiteSpace=wrap;html=1;" parent="1" vertex="1">
          <mxGeometry x="480" y="160" width="140" height="70" as="geometry" />
        </mxCell>
        <mxCell id="tyYHr8PMdlcGtiCUZPpv-7" value="Micanje figura" style="ellipse;whiteSpace=wrap;html=1;" parent="1" vertex="1">
          <mxGeometry x="470" y="280" width="140" height="70" as="geometry" />
        </mxCell>
        <mxCell id="tyYHr8PMdlcGtiCUZPpv-8" value="Kraj igre" style="ellipse;whiteSpace=wrap;html=1;" parent="1" vertex="1">
          <mxGeometry x="460" y="410" width="140" height="70" as="geometry" />
        </mxCell>
        <mxCell id="tyYHr8PMdlcGtiCUZPpv-9" value="Use" style="endArrow=open;endSize=12;dashed=1;html=1;" parent="1" source="tyYHr8PMdlcGtiCUZPpv-2" target="tyYHr8PMdlcGtiCUZPpv-4" edge="1">
          <mxGeometry width="160" relative="1" as="geometry">
            <mxPoint x="300" y="230" as="sourcePoint" />
            <mxPoint x="460" y="230" as="targetPoint" />
            <Array as="points">
              <mxPoint x="350" y="170" />
            </Array>
          </mxGeometry>
        </mxCell>
        <mxCell id="tyYHr8PMdlcGtiCUZPpv-10" value="Use" style="endArrow=open;endSize=12;dashed=1;html=1;" parent="1" source="tyYHr8PMdlcGtiCUZPpv-2" target="tyYHr8PMdlcGtiCUZPpv-6" edge="1">
          <mxGeometry width="160" relative="1" as="geometry">
            <mxPoint x="320" y="230" as="sourcePoint" />
            <mxPoint x="470" y="230" as="targetPoint" />
            <Array as="points">
              <mxPoint x="360" y="230" />
              <mxPoint x="400" y="230" />
            </Array>
          </mxGeometry>
        </mxCell>
        <mxCell id="tyYHr8PMdlcGtiCUZPpv-11" value="Use" style="endArrow=open;endSize=12;dashed=1;html=1;" parent="1" source="tyYHr8PMdlcGtiCUZPpv-2" target="tyYHr8PMdlcGtiCUZPpv-7" edge="1">
          <mxGeometry width="160" relative="1" as="geometry">
            <mxPoint x="450" y="280" as="sourcePoint" />
            <mxPoint x="610" y="280" as="targetPoint" />
            <Array as="points">
              <mxPoint x="390" y="290" />
            </Array>
          </mxGeometry>
        </mxCell>
        <mxCell id="tyYHr8PMdlcGtiCUZPpv-12" value="Use" style="endArrow=open;endSize=12;dashed=1;html=1;" parent="1" source="tyYHr8PMdlcGtiCUZPpv-2" target="tyYHr8PMdlcGtiCUZPpv-8" edge="1">
          <mxGeometry width="160" relative="1" as="geometry">
            <mxPoint x="290" y="280" as="sourcePoint" />
            <mxPoint x="620" y="290" as="targetPoint" />
            <Array as="points">
              <mxPoint x="370" y="370" />
            </Array>
          </mxGeometry>
        </mxCell>
      </root>
    </mxGraphModel>
  </diagram>
  <diagram id="L_JvUY317SHx2kzCPWRO" name="Activity: Igranje Covjeceneljutise">
    <mxGraphModel dx="898" dy="482" grid="1" gridSize="10" guides="1" tooltips="1" connect="1" arrows="1" fold="1" page="1" pageScale="1" pageWidth="827" pageHeight="1169" math="0" shadow="0">
      <root>
        <mxCell id="hrEPxVhKOqnE4tnf-zTD-0" />
        <mxCell id="hrEPxVhKOqnE4tnf-zTD-1" parent="hrEPxVhKOqnE4tnf-zTD-0" />
        <mxCell id="hrEPxVhKOqnE4tnf-zTD-2" value="" style="ellipse;html=1;shape=startState;fillColor=#000000;strokeColor=#ff0000;" parent="hrEPxVhKOqnE4tnf-zTD-1" vertex="1">
          <mxGeometry x="240" y="30" width="30" height="30" as="geometry" />
        </mxCell>
        <mxCell id="hrEPxVhKOqnE4tnf-zTD-3" value="" style="edgeStyle=orthogonalEdgeStyle;html=1;verticalAlign=bottom;endArrow=open;endSize=8;strokeColor=#ff0000;" parent="hrEPxVhKOqnE4tnf-zTD-1" source="hrEPxVhKOqnE4tnf-zTD-2" edge="1">
          <mxGeometry relative="1" as="geometry">
            <mxPoint x="255" y="120" as="targetPoint" />
          </mxGeometry>
        </mxCell>
        <mxCell id="hrEPxVhKOqnE4tnf-zTD-4" value="Start igre" style="rounded=1;whiteSpace=wrap;html=1;arcSize=40;fontColor=#000000;fillColor=#ffffc0;strokeColor=#ff0000;" parent="hrEPxVhKOqnE4tnf-zTD-1" vertex="1">
          <mxGeometry x="195" y="120" width="120" height="40" as="geometry" />
        </mxCell>
        <mxCell id="hrEPxVhKOqnE4tnf-zTD-5" value="" style="edgeStyle=orthogonalEdgeStyle;html=1;verticalAlign=bottom;endArrow=open;endSize=8;strokeColor=#ff0000;" parent="hrEPxVhKOqnE4tnf-zTD-1" source="hrEPxVhKOqnE4tnf-zTD-4" edge="1">
          <mxGeometry relative="1" as="geometry">
            <mxPoint x="255" y="220" as="targetPoint" />
          </mxGeometry>
        </mxCell>
        <mxCell id="ztD4rZuUAI3Bh0m5EagF-0" value="Biranje boje" style="rounded=1;whiteSpace=wrap;html=1;arcSize=40;fontColor=#000000;fillColor=#ffffc0;strokeColor=#ff0000;" parent="hrEPxVhKOqnE4tnf-zTD-1" vertex="1">
          <mxGeometry x="200" y="220" width="120" height="40" as="geometry" />
        </mxCell>
        <mxCell id="ztD4rZuUAI3Bh0m5EagF-1" value="" style="edgeStyle=orthogonalEdgeStyle;html=1;verticalAlign=bottom;endArrow=open;endSize=8;strokeColor=#ff0000;" parent="hrEPxVhKOqnE4tnf-zTD-1" source="ztD4rZuUAI3Bh0m5EagF-0" edge="1">
          <mxGeometry relative="1" as="geometry">
            <mxPoint x="260" y="320" as="targetPoint" />
          </mxGeometry>
        </mxCell>
        <mxCell id="ztD4rZuUAI3Bh0m5EagF-2" value="Biranje boje" style="rounded=1;whiteSpace=wrap;html=1;arcSize=40;fontColor=#000000;fillColor=#ffffc0;strokeColor=#ff0000;" parent="hrEPxVhKOqnE4tnf-zTD-1" vertex="1">
          <mxGeometry x="200" y="220" width="120" height="40" as="geometry" />
        </mxCell>
        <mxCell id="ztD4rZuUAI3Bh0m5EagF-3" value="" style="edgeStyle=orthogonalEdgeStyle;html=1;verticalAlign=bottom;endArrow=open;endSize=8;strokeColor=#ff0000;" parent="hrEPxVhKOqnE4tnf-zTD-1" source="ztD4rZuUAI3Bh0m5EagF-2" edge="1">
          <mxGeometry relative="1" as="geometry">
            <mxPoint x="260" y="320" as="targetPoint" />
          </mxGeometry>
        </mxCell>
        <mxCell id="ztD4rZuUAI3Bh0m5EagF-4" value="Micanje figure" style="rounded=1;whiteSpace=wrap;html=1;arcSize=40;fontColor=#000000;fillColor=#ffffc0;strokeColor=#ff0000;" parent="hrEPxVhKOqnE4tnf-zTD-1" vertex="1">
          <mxGeometry x="200" y="320" width="120" height="40" as="geometry" />
        </mxCell>
        <mxCell id="ztD4rZuUAI3Bh0m5EagF-5" value="" style="edgeStyle=orthogonalEdgeStyle;html=1;verticalAlign=bottom;endArrow=open;endSize=8;strokeColor=#ff0000;" parent="hrEPxVhKOqnE4tnf-zTD-1" source="ztD4rZuUAI3Bh0m5EagF-4" edge="1">
          <mxGeometry relative="1" as="geometry">
            <mxPoint x="260" y="420" as="targetPoint" />
          </mxGeometry>
        </mxCell>
        <mxCell id="ztD4rZuUAI3Bh0m5EagF-6" value="Tip igrača" style="rounded=1;whiteSpace=wrap;html=1;arcSize=40;fontColor=#000000;fillColor=#ffffc0;strokeColor=#ff0000;" parent="hrEPxVhKOqnE4tnf-zTD-1" vertex="1">
          <mxGeometry x="200" y="220" width="120" height="40" as="geometry" />
        </mxCell>
        <mxCell id="ztD4rZuUAI3Bh0m5EagF-7" value="" style="edgeStyle=orthogonalEdgeStyle;html=1;verticalAlign=bottom;endArrow=open;endSize=8;strokeColor=#ff0000;" parent="hrEPxVhKOqnE4tnf-zTD-1" source="ztD4rZuUAI3Bh0m5EagF-6" edge="1">
          <mxGeometry relative="1" as="geometry">
            <mxPoint x="260" y="320" as="targetPoint" />
          </mxGeometry>
        </mxCell>
        <mxCell id="ztD4rZuUAI3Bh0m5EagF-8" value="Kraj" style="rounded=1;whiteSpace=wrap;html=1;arcSize=40;fontColor=#000000;fillColor=#ffffc0;strokeColor=#ff0000;" parent="hrEPxVhKOqnE4tnf-zTD-1" vertex="1">
          <mxGeometry x="200" y="420" width="120" height="40" as="geometry" />
        </mxCell>
        <mxCell id="ztD4rZuUAI3Bh0m5EagF-9" value="" style="edgeStyle=orthogonalEdgeStyle;html=1;verticalAlign=bottom;endArrow=open;endSize=8;strokeColor=#ff0000;" parent="hrEPxVhKOqnE4tnf-zTD-1" source="ztD4rZuUAI3Bh0m5EagF-8" edge="1">
          <mxGeometry relative="1" as="geometry">
            <mxPoint x="260" y="520" as="targetPoint" />
          </mxGeometry>
        </mxCell>
        <mxCell id="ztD4rZuUAI3Bh0m5EagF-10" value="" style="ellipse;html=1;shape=endState;fillColor=#000000;strokeColor=#ff0000;" parent="hrEPxVhKOqnE4tnf-zTD-1" vertex="1">
          <mxGeometry x="245" y="520" width="30" height="30" as="geometry" />
        </mxCell>
        <mxCell id="nOE4lzZG-l7pBnJvJ0cv-0" value="#0 prikaz naziva igre" style="text;html=1;resizable=0;autosize=1;align=center;verticalAlign=middle;points=[];fillColor=none;strokeColor=none;rounded=0;" parent="hrEPxVhKOqnE4tnf-zTD-1" vertex="1">
          <mxGeometry x="265" y="35" width="130" height="20" as="geometry" />
        </mxCell>
      </root>
    </mxGraphModel>
  </diagram>
  <diagram id="ZwajGzsQzo3b_FIZZhlu" name="Activity: Start igre">
    <mxGraphModel dx="436" dy="479" grid="1" gridSize="10" guides="1" tooltips="1" connect="1" arrows="1" fold="1" page="1" pageScale="1" pageWidth="827" pageHeight="1169" math="0" shadow="0">
      <root>
        <mxCell id="5EeQ4h-Z2n693Uy9X6VA-0" />
        <mxCell id="5EeQ4h-Z2n693Uy9X6VA-1" parent="5EeQ4h-Z2n693Uy9X6VA-0" />
        <mxCell id="5EeQ4h-Z2n693Uy9X6VA-10" value="computer" style="edgeStyle=orthogonalEdgeStyle;html=1;align=left;verticalAlign=bottom;endArrow=open;endSize=8;strokeColor=#ff0000;entryX=1;entryY=0.5;entryDx=0;entryDy=0;" parent="5EeQ4h-Z2n693Uy9X6VA-1" edge="1">
          <mxGeometry x="-1" relative="1" as="geometry">
            <mxPoint x="310" y="160" as="targetPoint" />
            <Array as="points">
              <mxPoint x="395" y="270" />
              <mxPoint x="395" y="160" />
            </Array>
          </mxGeometry>
        </mxCell>
        <mxCell id="RkNZttETJcBkmwF0C27t-0" value="" style="ellipse;html=1;shape=startState;fillColor=#000000;strokeColor=#ff0000;" parent="5EeQ4h-Z2n693Uy9X6VA-1" vertex="1">
          <mxGeometry x="225" y="100" width="30" height="30" as="geometry" />
        </mxCell>
        <mxCell id="RkNZttETJcBkmwF0C27t-1" value="" style="edgeStyle=orthogonalEdgeStyle;html=1;verticalAlign=bottom;endArrow=open;endSize=8;strokeColor=#ff0000;entryX=0.5;entryY=0;entryDx=0;entryDy=0;" parent="5EeQ4h-Z2n693Uy9X6VA-1" source="RkNZttETJcBkmwF0C27t-0" edge="1" target="GR33bCCn0L3csyg18Jab-0">
          <mxGeometry relative="1" as="geometry">
            <mxPoint x="240" y="209.9999999999999" as="targetPoint" />
          </mxGeometry>
        </mxCell>
        <mxCell id="lrp9VakOLXWiG9GhG1N1-2" value="" style="ellipse;html=1;shape=endState;fillColor=#000000;strokeColor=#ff0000;" parent="5EeQ4h-Z2n693Uy9X6VA-1" vertex="1">
          <mxGeometry x="225" y="620" width="30" height="30" as="geometry" />
        </mxCell>
        <mxCell id="ICRReA4SIRu0EK8HSibf-2" value="Provjera unosa" style="rhombus;whiteSpace=wrap;html=1;fillColor=#dae8fc;strokeColor=#6c8ebf;" parent="5EeQ4h-Z2n693Uy9X6VA-1" vertex="1">
          <mxGeometry x="200" y="480" width="80" height="65" as="geometry" />
        </mxCell>
        <mxCell id="GRS-r4Y0jXM3KbRdMpim-1" value="" style="edgeStyle=orthogonalEdgeStyle;html=1;verticalAlign=bottom;endArrow=open;endSize=8;strokeColor=#ff0000;exitX=1;exitY=0.5;exitDx=0;exitDy=0;entryX=0.702;entryY=0.113;entryDx=0;entryDy=0;entryPerimeter=0;" parent="5EeQ4h-Z2n693Uy9X6VA-1" edge="1" target="ICRReA4SIRu0EK8HSibf-2" source="GR33bCCn0L3csyg18Jab-4">
          <mxGeometry relative="1" as="geometry">
            <mxPoint x="300.07" y="440" as="targetPoint" />
            <mxPoint x="300" y="380" as="sourcePoint" />
            <Array as="points">
              <mxPoint x="300" y="380" />
              <mxPoint x="300" y="470" />
              <mxPoint x="256" y="470" />
            </Array>
          </mxGeometry>
        </mxCell>
        <mxCell id="GR33bCCn0L3csyg18Jab-0" value="Prikaz pocetka igre" style="rounded=1;whiteSpace=wrap;html=1;arcSize=40;fillColor=#dae8fc;strokeColor=#6c8ebf;" vertex="1" parent="5EeQ4h-Z2n693Uy9X6VA-1">
          <mxGeometry x="180" y="230" width="120" height="40" as="geometry" />
        </mxCell>
        <mxCell id="GR33bCCn0L3csyg18Jab-2" value="" style="edgeStyle=orthogonalEdgeStyle;html=1;verticalAlign=bottom;endArrow=open;endSize=8;strokeColor=#ff0000;entryX=0.5;entryY=0;entryDx=0;entryDy=0;" edge="1" parent="5EeQ4h-Z2n693Uy9X6VA-1">
          <mxGeometry relative="1" as="geometry">
            <mxPoint x="240" y="340" as="targetPoint" />
            <mxPoint x="239" y="270" as="sourcePoint" />
            <Array as="points">
              <mxPoint x="240" y="270" />
            </Array>
          </mxGeometry>
        </mxCell>
        <mxCell id="GR33bCCn0L3csyg18Jab-4" value="Korisnikov pocetni Izbor" style="rhombus;whiteSpace=wrap;html=1;fillColor=#dae8fc;strokeColor=#6c8ebf;" vertex="1" parent="5EeQ4h-Z2n693Uy9X6VA-1">
          <mxGeometry x="195" y="340" width="90" height="80" as="geometry" />
        </mxCell>
        <mxCell id="GR33bCCn0L3csyg18Jab-5" value="0-izlaz iz igre" style="text;html=1;align=center;verticalAlign=middle;resizable=0;points=[];autosize=1;" vertex="1" parent="5EeQ4h-Z2n693Uy9X6VA-1">
          <mxGeometry x="280" y="360" width="90" height="20" as="geometry" />
        </mxCell>
        <mxCell id="GR33bCCn0L3csyg18Jab-6" value="1-pokreni igru" style="text;html=1;align=center;verticalAlign=middle;resizable=0;points=[];autosize=1;" vertex="1" parent="5EeQ4h-Z2n693Uy9X6VA-1">
          <mxGeometry x="105" y="360" width="90" height="20" as="geometry" />
        </mxCell>
        <mxCell id="GR33bCCn0L3csyg18Jab-7" value="" style="edgeStyle=orthogonalEdgeStyle;html=1;verticalAlign=bottom;endArrow=open;endSize=8;strokeColor=#ff0000;exitX=1.009;exitY=1.277;exitDx=0;exitDy=0;exitPerimeter=0;entryX=0.139;entryY=0.326;entryDx=0;entryDy=0;entryPerimeter=0;" edge="1" parent="5EeQ4h-Z2n693Uy9X6VA-1" source="GR33bCCn0L3csyg18Jab-6" target="ICRReA4SIRu0EK8HSibf-2">
          <mxGeometry relative="1" as="geometry">
            <mxPoint x="165.06999999999994" y="440" as="targetPoint" />
            <mxPoint x="150" y="380" as="sourcePoint" />
            <Array as="points">
              <mxPoint x="196" y="380" />
              <mxPoint x="165" y="380" />
              <mxPoint x="165" y="480" />
              <mxPoint x="211" y="480" />
            </Array>
          </mxGeometry>
        </mxCell>
        <mxCell id="GR33bCCn0L3csyg18Jab-8" value="" style="edgeStyle=orthogonalEdgeStyle;html=1;verticalAlign=bottom;endArrow=open;endSize=8;strokeColor=#ff0000;exitX=1;exitY=0.5;exitDx=0;exitDy=0;" edge="1" parent="5EeQ4h-Z2n693Uy9X6VA-1" target="GR33bCCn0L3csyg18Jab-4">
          <mxGeometry relative="1" as="geometry">
            <mxPoint x="280" y="330" as="targetPoint" />
            <mxPoint x="278.84" y="510" as="sourcePoint" />
            <Array as="points">
              <mxPoint x="380" y="510" />
              <mxPoint x="380" y="310" />
              <mxPoint x="280" y="310" />
            </Array>
          </mxGeometry>
        </mxCell>
        <mxCell id="GR33bCCn0L3csyg18Jab-9" value="Pogresan unos" style="text;html=1;align=center;verticalAlign=middle;resizable=0;points=[];autosize=1;" vertex="1" parent="5EeQ4h-Z2n693Uy9X6VA-1">
          <mxGeometry x="270" y="490" width="100" height="20" as="geometry" />
        </mxCell>
        <mxCell id="GR33bCCn0L3csyg18Jab-10" value="" style="edgeStyle=orthogonalEdgeStyle;html=1;verticalAlign=bottom;endArrow=open;endSize=8;strokeColor=#ff0000;entryX=0.5;entryY=0;entryDx=0;entryDy=0;" edge="1" parent="5EeQ4h-Z2n693Uy9X6VA-1">
          <mxGeometry relative="1" as="geometry">
            <mxPoint x="240.5" y="620" as="targetPoint" />
            <mxPoint x="239.5" y="550" as="sourcePoint" />
            <Array as="points">
              <mxPoint x="240" y="540" />
              <mxPoint x="241" y="540" />
            </Array>
          </mxGeometry>
        </mxCell>
        <mxCell id="GR33bCCn0L3csyg18Jab-11" value="Ispravan unos" style="text;html=1;align=center;verticalAlign=middle;resizable=0;points=[];autosize=1;" vertex="1" parent="5EeQ4h-Z2n693Uy9X6VA-1">
          <mxGeometry x="240" y="575" width="90" height="20" as="geometry" />
        </mxCell>
      </root>
    </mxGraphModel>
  </diagram>
  <diagram name="Activity: Tip igrača" id="D26CZzUW7IEtBNAvQuiv">
    <mxGraphModel dx="436" dy="479" grid="1" gridSize="10" guides="1" tooltips="1" connect="1" arrows="1" fold="1" page="1" pageScale="1" pageWidth="827" pageHeight="1169" math="0" shadow="0">
      <root>
        <mxCell id="d3JxVAWfIFboAoJXZIc6-0" />
        <mxCell id="d3JxVAWfIFboAoJXZIc6-1" parent="d3JxVAWfIFboAoJXZIc6-0" />
        <mxCell id="d3JxVAWfIFboAoJXZIc6-2" value="" style="ellipse;html=1;shape=startState;fillColor=#000000;strokeColor=#ff0000;" parent="d3JxVAWfIFboAoJXZIc6-1" vertex="1">
          <mxGeometry x="255" y="190" width="30" height="30" as="geometry" />
        </mxCell>
        <mxCell id="d3JxVAWfIFboAoJXZIc6-3" value="" style="edgeStyle=orthogonalEdgeStyle;html=1;verticalAlign=bottom;endArrow=open;endSize=8;strokeColor=#ff0000;entryX=0.5;entryY=0;entryDx=0;entryDy=0;" parent="d3JxVAWfIFboAoJXZIc6-1" source="d3JxVAWfIFboAoJXZIc6-2" target="BV2A-NbjnbErTdCT4Je7-21" edge="1">
          <mxGeometry relative="1" as="geometry">
            <mxPoint x="270" y="280" as="targetPoint" />
          </mxGeometry>
        </mxCell>
        <mxCell id="d3JxVAWfIFboAoJXZIc6-5" value="" style="edgeStyle=orthogonalEdgeStyle;html=1;verticalAlign=bottom;endArrow=open;endSize=8;strokeColor=#ff0000;entryX=0.5;entryY=0;entryDx=0;entryDy=0;" parent="d3JxVAWfIFboAoJXZIc6-1" edge="1">
          <mxGeometry relative="1" as="geometry">
            <mxPoint x="269.40999999999997" y="380" as="targetPoint" />
            <mxPoint x="269.40999999999997" y="239.9999999999999" as="sourcePoint" />
          </mxGeometry>
        </mxCell>
        <mxCell id="d3JxVAWfIFboAoJXZIc6-11" value="" style="ellipse;html=1;shape=endState;fillColor=#000000;strokeColor=#ff0000;" parent="d3JxVAWfIFboAoJXZIc6-1" vertex="1">
          <mxGeometry x="265" y="960" width="30" height="30" as="geometry" />
        </mxCell>
        <mxCell id="BV2A-NbjnbErTdCT4Je7-14" value="Ime nije ispravno" style="edgeStyle=orthogonalEdgeStyle;html=1;align=left;verticalAlign=bottom;endArrow=open;endSize=8;strokeColor=#ff0000;" parent="d3JxVAWfIFboAoJXZIc6-1" edge="1">
          <mxGeometry x="-1" relative="1" as="geometry">
            <mxPoint x="690" y="420.0588235294118" as="targetPoint" />
            <Array as="points">
              <mxPoint x="800" y="548" />
              <mxPoint x="800" y="420" />
            </Array>
          </mxGeometry>
        </mxCell>
        <mxCell id="BV2A-NbjnbErTdCT4Je7-21" value="Prikaz izbornika za&amp;nbsp;&lt;br&gt;odabir igraca" style="rounded=1;whiteSpace=wrap;html=1;arcSize=40;fillColor=#dae8fc;strokeColor=#6c8ebf;" parent="d3JxVAWfIFboAoJXZIc6-1" vertex="1">
          <mxGeometry x="210" y="280" width="120" height="40" as="geometry" />
        </mxCell>
        <mxCell id="BV2A-NbjnbErTdCT4Je7-22" value="Tip igraca" style="rhombus;whiteSpace=wrap;html=1;fillColor=#dae8fc;strokeColor=#6c8ebf;" parent="d3JxVAWfIFboAoJXZIc6-1" vertex="1">
          <mxGeometry x="220" y="380" width="100" height="80" as="geometry" />
        </mxCell>
        <mxCell id="BV2A-NbjnbErTdCT4Je7-23" value="0- računalo" style="edgeStyle=orthogonalEdgeStyle;html=1;align=left;verticalAlign=top;endArrow=open;endSize=8;strokeColor=#ff0000;exitX=0.022;exitY=0.599;exitDx=0;exitDy=0;entryX=0.073;entryY=0.395;entryDx=0;entryDy=0;entryPerimeter=0;exitPerimeter=0;" parent="d3JxVAWfIFboAoJXZIc6-1" source="BV2A-NbjnbErTdCT4Je7-22" target="yfsdcTJUqTLkznaJ4ogz-1" edge="1">
          <mxGeometry x="-0.549" y="-20" relative="1" as="geometry">
            <mxPoint x="220" y="500" as="targetPoint" />
            <mxPoint x="220" y="419.9999999999999" as="sourcePoint" />
            <Array as="points">
              <mxPoint x="222" y="420" />
              <mxPoint x="140" y="420" />
              <mxPoint x="140" y="490" />
              <mxPoint x="236" y="490" />
            </Array>
            <mxPoint as="offset" />
          </mxGeometry>
        </mxCell>
        <mxCell id="BV2A-NbjnbErTdCT4Je7-24" value="1- čovjek" style="edgeStyle=orthogonalEdgeStyle;html=1;align=left;verticalAlign=bottom;endArrow=open;endSize=8;strokeColor=#ff0000;" parent="d3JxVAWfIFboAoJXZIc6-1" target="yfsdcTJUqTLkznaJ4ogz-1" edge="1">
          <mxGeometry x="-1" relative="1" as="geometry">
            <mxPoint x="390" y="480" as="targetPoint" />
            <mxPoint as="offset" />
            <mxPoint x="319.9964705882351" y="419.9411764705882" as="sourcePoint" />
            <Array as="points">
              <mxPoint x="380" y="420" />
              <mxPoint x="380" y="470" />
              <mxPoint x="300" y="470" />
            </Array>
          </mxGeometry>
        </mxCell>
        <mxCell id="VKIx5OL8yNBtjH40uwVi-0" value="Unesite ime za igrača" style="rounded=1;whiteSpace=wrap;html=1;arcSize=32;fillColor=#dae8fc;strokeColor=#6c8ebf;" parent="d3JxVAWfIFboAoJXZIc6-1" vertex="1">
          <mxGeometry x="230" y="585" width="120" height="40" as="geometry" />
        </mxCell>
        <mxCell id="VKIx5OL8yNBtjH40uwVi-1" value="Izaberite dostupnu boju" style="rounded=1;whiteSpace=wrap;html=1;arcSize=40;fillColor=#f8cecc;strokeColor=#b85450;" parent="d3JxVAWfIFboAoJXZIc6-1" vertex="1">
          <mxGeometry x="220" y="675" width="120" height="40" as="geometry" />
        </mxCell>
        <mxCell id="VKIx5OL8yNBtjH40uwVi-2" value="" style="edgeStyle=orthogonalEdgeStyle;html=1;verticalAlign=bottom;endArrow=open;endSize=8;strokeColor=#ff0000;entryX=0.5;entryY=0;entryDx=0;entryDy=0;" parent="d3JxVAWfIFboAoJXZIc6-1" edge="1">
          <mxGeometry relative="1" as="geometry">
            <mxPoint x="279.41" y="674" as="targetPoint" />
            <mxPoint x="279.41" y="624" as="sourcePoint" />
            <Array as="points">
              <mxPoint x="279.41" y="644" />
              <mxPoint x="279.41" y="644" />
            </Array>
          </mxGeometry>
        </mxCell>
        <mxCell id="yfsdcTJUqTLkznaJ4ogz-1" value="Provjera unosa" style="rhombus;whiteSpace=wrap;html=1;fillColor=#dae8fc;strokeColor=#6c8ebf;" parent="d3JxVAWfIFboAoJXZIc6-1" vertex="1">
          <mxGeometry x="230" y="475" width="80" height="65" as="geometry" />
        </mxCell>
        <mxCell id="47Sy6hZ6qJlC3fQ8Hp7U-2" value="for i in range (4)" style="text;html=1;align=center;verticalAlign=middle;resizable=0;points=[];autosize=1;" parent="d3JxVAWfIFboAoJXZIc6-1" vertex="1">
          <mxGeometry x="160" y="370" width="100" height="20" as="geometry" />
        </mxCell>
        <mxCell id="63E45P5irDAKJHuENVOV-0" value="1- Unos ispravan" style="edgeStyle=orthogonalEdgeStyle;html=1;align=left;verticalAlign=top;endArrow=open;endSize=8;strokeColor=#ff0000;entryX=0.5;entryY=0;entryDx=0;entryDy=0;" parent="d3JxVAWfIFboAoJXZIc6-1" edge="1">
          <mxGeometry x="-0.8071" y="21" relative="1" as="geometry">
            <mxPoint x="269.41" y="584" as="targetPoint" />
            <mxPoint x="269" y="540" as="sourcePoint" />
            <Array as="points">
              <mxPoint x="269.41" y="544" />
              <mxPoint x="269.41" y="544" />
            </Array>
            <mxPoint as="offset" />
          </mxGeometry>
        </mxCell>
        <mxCell id="63E45P5irDAKJHuENVOV-1" value="Unos nije ispravan" style="edgeStyle=orthogonalEdgeStyle;html=1;align=left;verticalAlign=bottom;endArrow=open;endSize=8;strokeColor=#ff0000;entryX=1;entryY=0;entryDx=0;entryDy=0;" parent="d3JxVAWfIFboAoJXZIc6-1" target="BV2A-NbjnbErTdCT4Je7-22" edge="1">
          <mxGeometry x="-1" relative="1" as="geometry">
            <mxPoint x="330.04" y="379.9988235294118" as="targetPoint" />
            <Array as="points">
              <mxPoint x="440" y="507" />
              <mxPoint x="440" y="370" />
              <mxPoint x="330" y="370" />
              <mxPoint x="330" y="390" />
              <mxPoint x="295" y="390" />
            </Array>
            <mxPoint x="310.00380090497725" y="507.41058823529414" as="sourcePoint" />
            <mxPoint as="offset" />
          </mxGeometry>
        </mxCell>
        <mxCell id="63E45P5irDAKJHuENVOV-2" value="" style="edgeStyle=orthogonalEdgeStyle;html=1;verticalAlign=bottom;endArrow=open;endSize=8;strokeColor=#ff0000;entryX=0.5;entryY=0;entryDx=0;entryDy=0;exitX=0.5;exitY=1;exitDx=0;exitDy=0;" parent="d3JxVAWfIFboAoJXZIc6-1" edge="1" source="VKIx5OL8yNBtjH40uwVi-1">
          <mxGeometry relative="1" as="geometry">
            <mxPoint x="279.5100000000001" y="780" as="targetPoint" />
            <mxPoint x="280" y="730" as="sourcePoint" />
            <Array as="points" />
          </mxGeometry>
        </mxCell>
        <mxCell id="A9ujkwbmkUCgtL1-DxdZ-0" value="0- Unos ispravan" style="edgeStyle=orthogonalEdgeStyle;html=1;align=left;verticalAlign=top;endArrow=open;endSize=8;strokeColor=#ff0000;exitX=0;exitY=1;exitDx=0;exitDy=0;entryX=0;entryY=0.5;entryDx=0;entryDy=0;" parent="d3JxVAWfIFboAoJXZIc6-1" source="yfsdcTJUqTLkznaJ4ogz-1" target="hqro_B_QHyBzd5aHwJ6Y-0" edge="1">
          <mxGeometry x="-0.5583" y="-90" relative="1" as="geometry">
            <mxPoint x="210" y="800" as="targetPoint" />
            <mxPoint x="209.41" y="530" as="sourcePoint" />
            <Array as="points">
              <mxPoint x="210" y="524" />
              <mxPoint x="210" y="800" />
            </Array>
            <mxPoint as="offset" />
          </mxGeometry>
        </mxCell>
        <mxCell id="hqro_B_QHyBzd5aHwJ6Y-0" value="Info o igracima" style="rounded=1;whiteSpace=wrap;html=1;arcSize=40;fillColor=#dae8fc;strokeColor=#6c8ebf;" vertex="1" parent="d3JxVAWfIFboAoJXZIc6-1">
          <mxGeometry x="230" y="780" width="120" height="40" as="geometry" />
        </mxCell>
        <mxCell id="hqro_B_QHyBzd5aHwJ6Y-2" value="" style="edgeStyle=orthogonalEdgeStyle;html=1;verticalAlign=bottom;endArrow=open;endSize=8;strokeColor=#ff0000;entryX=0.5;entryY=0;entryDx=0;entryDy=0;" edge="1" parent="d3JxVAWfIFboAoJXZIc6-1">
          <mxGeometry relative="1" as="geometry">
            <mxPoint x="279.5100000000001" y="870" as="targetPoint" />
            <mxPoint x="279.5100000000001" y="820" as="sourcePoint" />
            <Array as="points">
              <mxPoint x="279.51000000000005" y="840" />
              <mxPoint x="279.51000000000005" y="840" />
            </Array>
          </mxGeometry>
        </mxCell>
        <mxCell id="_MGzhEu6IXF0sFnX_tkU-0" value="Dodaj igraca na pool" style="rounded=1;whiteSpace=wrap;html=1;arcSize=40;fillColor=#f8cecc;strokeColor=#b85450;" vertex="1" parent="d3JxVAWfIFboAoJXZIc6-1">
          <mxGeometry x="220" y="870" width="120" height="40" as="geometry" />
        </mxCell>
        <mxCell id="_MGzhEu6IXF0sFnX_tkU-2" value="" style="edgeStyle=orthogonalEdgeStyle;html=1;verticalAlign=bottom;endArrow=open;endSize=8;strokeColor=#ff0000;entryX=0.5;entryY=0;entryDx=0;entryDy=0;" edge="1" parent="d3JxVAWfIFboAoJXZIc6-1">
          <mxGeometry relative="1" as="geometry">
            <mxPoint x="279.5100000000001" y="960" as="targetPoint" />
            <mxPoint x="279.5100000000001" y="910" as="sourcePoint" />
            <Array as="points">
              <mxPoint x="279.51000000000005" y="930" />
              <mxPoint x="279.51000000000005" y="930" />
            </Array>
          </mxGeometry>
        </mxCell>
      </root>
    </mxGraphModel>
  </diagram>
  <diagram name="Activity: Micanje figure" id="fjj8Gp9vI0_zf2HJ1-If">
    <mxGraphModel dx="513" dy="564" grid="1" gridSize="10" guides="1" tooltips="1" connect="1" arrows="1" fold="1" page="1" pageScale="1" pageWidth="827" pageHeight="1169" math="0" shadow="0">
      <root>
        <mxCell id="mSVQlwnSNKmeRhDkc5FI-0" />
        <mxCell id="mSVQlwnSNKmeRhDkc5FI-1" parent="mSVQlwnSNKmeRhDkc5FI-0" />
        <mxCell id="cydfw-H86_3NEy_80KlA-9" value="" style="edgeStyle=orthogonalEdgeStyle;rounded=0;orthogonalLoop=1;jettySize=auto;html=1;" parent="mSVQlwnSNKmeRhDkc5FI-1" source="mSVQlwnSNKmeRhDkc5FI-2" target="cydfw-H86_3NEy_80KlA-8" edge="1">
          <mxGeometry relative="1" as="geometry" />
        </mxCell>
        <mxCell id="mSVQlwnSNKmeRhDkc5FI-2" value="" style="ellipse;html=1;shape=startState;fillColor=#000000;strokeColor=#ff0000;" parent="mSVQlwnSNKmeRhDkc5FI-1" vertex="1">
          <mxGeometry x="227.5" y="10" width="30" height="30" as="geometry" />
        </mxCell>
        <mxCell id="mSVQlwnSNKmeRhDkc5FI-9" value="Dohvati dopustene pijune" style="rounded=1;whiteSpace=wrap;html=1;arcSize=40;fillColor=#f8cecc;strokeColor=#b85450;" parent="mSVQlwnSNKmeRhDkc5FI-1" vertex="1">
          <mxGeometry x="178.13" y="330" width="120" height="40" as="geometry" />
        </mxCell>
        <mxCell id="w27Bw3pKrFT2wLLb7VYe-4" value="" style="edgeStyle=orthogonalEdgeStyle;html=1;verticalAlign=bottom;endArrow=open;endSize=8;strokeColor=#ff0000;exitX=0.5;exitY=1;exitDx=0;exitDy=0;" parent="mSVQlwnSNKmeRhDkc5FI-1" source="mSVQlwnSNKmeRhDkc5FI-9" edge="1">
          <mxGeometry relative="1" as="geometry">
            <mxPoint x="238" y="410" as="targetPoint" />
            <mxPoint x="237.54" y="380" as="sourcePoint" />
            <Array as="points" />
          </mxGeometry>
        </mxCell>
        <mxCell id="cydfw-H86_3NEy_80KlA-1" value="" style="edgeStyle=orthogonalEdgeStyle;html=1;verticalAlign=bottom;endArrow=open;endSize=8;strokeColor=#ff0000;exitX=0.5;exitY=0;exitDx=0;exitDy=0;entryX=1;entryY=0.5;entryDx=0;entryDy=0;" parent="mSVQlwnSNKmeRhDkc5FI-1" source="cydfw-H86_3NEy_80KlA-5" target="mSVQlwnSNKmeRhDkc5FI-9" edge="1">
          <mxGeometry relative="1" as="geometry">
            <mxPoint x="380" y="320" as="targetPoint" />
            <mxPoint x="295" y="172.5" as="sourcePoint" />
            <Array as="points">
              <mxPoint x="430" y="172" />
              <mxPoint x="430" y="350" />
            </Array>
          </mxGeometry>
        </mxCell>
        <mxCell id="cydfw-H86_3NEy_80KlA-4" value="" style="edgeStyle=orthogonalEdgeStyle;html=1;verticalAlign=bottom;endArrow=open;endSize=8;strokeColor=#ff0000;exitX=0.5;exitY=1;exitDx=0;exitDy=0;entryX=0;entryY=0.5;entryDx=0;entryDy=0;" parent="mSVQlwnSNKmeRhDkc5FI-1" source="cydfw-H86_3NEy_80KlA-8" target="cydfw-H86_3NEy_80KlA-5" edge="1">
          <mxGeometry relative="1" as="geometry">
            <mxPoint x="270" y="130" as="targetPoint" />
            <mxPoint x="242.5" y="112.5" as="sourcePoint" />
            <Array as="points">
              <mxPoint x="243" y="130" />
            </Array>
          </mxGeometry>
        </mxCell>
        <mxCell id="cydfw-H86_3NEy_80KlA-5" value="Vrijednost bacanja=6" style="rhombus;whiteSpace=wrap;html=1;fillColor=#f8cecc;strokeColor=#b85450;direction=south;" parent="mSVQlwnSNKmeRhDkc5FI-1" vertex="1">
          <mxGeometry x="190" y="135" width="96.25" height="75" as="geometry" />
        </mxCell>
        <mxCell id="cydfw-H86_3NEy_80KlA-8" value="Pokreni iduce bacanje kocke" style="rounded=1;whiteSpace=wrap;html=1;arcSize=40;fillColor=#f8cecc;strokeColor=#b85450;" parent="mSVQlwnSNKmeRhDkc5FI-1" vertex="1">
          <mxGeometry x="182.5" y="60" width="120" height="40" as="geometry" />
        </mxCell>
        <mxCell id="cydfw-H86_3NEy_80KlA-10" value="False" style="text;html=1;align=center;verticalAlign=middle;resizable=0;points=[];autosize=1;" parent="mSVQlwnSNKmeRhDkc5FI-1" vertex="1">
          <mxGeometry x="280" y="140" width="40" height="20" as="geometry" />
        </mxCell>
        <mxCell id="cydfw-H86_3NEy_80KlA-12" value="True" style="text;html=1;align=center;verticalAlign=middle;resizable=0;points=[];autosize=1;" parent="mSVQlwnSNKmeRhDkc5FI-1" vertex="1">
          <mxGeometry x="257.5" y="210" width="40" height="20" as="geometry" />
        </mxCell>
        <mxCell id="3DJVACBQ3_Y2VkQOyzgs-2" value="" style="ellipse;html=1;shape=endState;fillColor=#000000;strokeColor=#ff0000;direction=south;" vertex="1" parent="mSVQlwnSNKmeRhDkc5FI-1">
          <mxGeometry x="210" y="920" width="30" height="30" as="geometry" />
        </mxCell>
        <mxCell id="3DJVACBQ3_Y2VkQOyzgs-8" value="Odabir ako ima vise dopustenih pijuna za micanje" style="rounded=1;whiteSpace=wrap;html=1;arcSize=40;fillColor=#f5f5f5;strokeColor=#666666;fontColor=#333333;" vertex="1" parent="mSVQlwnSNKmeRhDkc5FI-1">
          <mxGeometry x="177.5" y="410" width="120" height="40" as="geometry" />
        </mxCell>
        <mxCell id="b-x2M1_fkUvQBQFoWUMa-0" value="Napravi korak" style="rounded=1;whiteSpace=wrap;html=1;arcSize=40;fillColor=#f8cecc;strokeColor=#b85450;" vertex="1" parent="mSVQlwnSNKmeRhDkc5FI-1">
          <mxGeometry x="180" y="685" width="120" height="40" as="geometry" />
        </mxCell>
        <mxCell id="b-x2M1_fkUvQBQFoWUMa-3" value="" style="edgeStyle=orthogonalEdgeStyle;html=1;verticalAlign=bottom;endArrow=open;endSize=8;strokeColor=#ff0000;exitX=0.5;exitY=1;exitDx=0;exitDy=0;entryX=0.514;entryY=0;entryDx=0;entryDy=0;entryPerimeter=0;" edge="1" parent="mSVQlwnSNKmeRhDkc5FI-1" source="b-x2M1_fkUvQBQFoWUMa-0" target="b-x2M1_fkUvQBQFoWUMa-6">
          <mxGeometry relative="1" as="geometry">
            <mxPoint x="240.5" y="800" as="targetPoint" />
            <mxPoint x="256.91" y="770" as="sourcePoint" />
            <Array as="points" />
          </mxGeometry>
        </mxCell>
        <mxCell id="b-x2M1_fkUvQBQFoWUMa-6" value="Pokreni bacanje" style="rounded=1;whiteSpace=wrap;html=1;arcSize=40;fillColor=#f8cecc;strokeColor=#b85450;" vertex="1" parent="mSVQlwnSNKmeRhDkc5FI-1">
          <mxGeometry x="175" y="805" width="127.5" height="40" as="geometry" />
        </mxCell>
        <mxCell id="b-x2M1_fkUvQBQFoWUMa-9" value="" style="edgeStyle=orthogonalEdgeStyle;html=1;verticalAlign=bottom;endArrow=open;endSize=8;strokeColor=#ff0000;" edge="1" parent="mSVQlwnSNKmeRhDkc5FI-1">
          <mxGeometry relative="1" as="geometry">
            <mxPoint x="234.07000000000002" y="330" as="targetPoint" />
            <mxPoint x="233.74999999999997" y="280" as="sourcePoint" />
            <Array as="points">
              <mxPoint x="234.57000000000002" y="315" />
            </Array>
          </mxGeometry>
        </mxCell>
        <mxCell id="hxwI-FCFO5U0KpnUEp-d-1" value="" style="edgeStyle=orthogonalEdgeStyle;html=1;verticalAlign=bottom;endArrow=open;endSize=8;strokeColor=#ff0000;" edge="1" parent="mSVQlwnSNKmeRhDkc5FI-1" source="hxwI-FCFO5U0KpnUEp-d-0">
          <mxGeometry relative="1" as="geometry">
            <mxPoint x="237.85999999999993" y="260" as="targetPoint" />
            <mxPoint x="237.54" y="210" as="sourcePoint" />
            <Array as="points">
              <mxPoint x="238.35999999999999" y="245" />
            </Array>
          </mxGeometry>
        </mxCell>
        <mxCell id="hxwI-FCFO5U0KpnUEp-d-0" value="Dohvati novog pijuna" style="rounded=1;whiteSpace=wrap;html=1;arcSize=40;fillColor=#f8cecc;strokeColor=#b85450;" vertex="1" parent="mSVQlwnSNKmeRhDkc5FI-1">
          <mxGeometry x="178.13" y="250" width="120" height="40" as="geometry" />
        </mxCell>
        <mxCell id="hxwI-FCFO5U0KpnUEp-d-2" value="" style="edgeStyle=orthogonalEdgeStyle;html=1;verticalAlign=bottom;endArrow=open;endSize=8;strokeColor=#ff0000;" edge="1" parent="mSVQlwnSNKmeRhDkc5FI-1" target="hxwI-FCFO5U0KpnUEp-d-0">
          <mxGeometry relative="1" as="geometry">
            <mxPoint x="237.8599999999999" y="260" as="targetPoint" />
            <mxPoint x="237.53999999999996" y="210" as="sourcePoint" />
            <Array as="points" />
          </mxGeometry>
        </mxCell>
        <mxCell id="S9ly9e3inDHfq40TF6Mj-0" value="Uklanjanje pijuna druge boje ako dode na njegovu poziciju" style="rounded=1;whiteSpace=wrap;html=1;arcSize=40;fillColor=#f8cecc;strokeColor=#b85450;" vertex="1" parent="mSVQlwnSNKmeRhDkc5FI-1">
          <mxGeometry x="171.25" y="585" width="127.5" height="40" as="geometry" />
        </mxCell>
        <mxCell id="S9ly9e3inDHfq40TF6Mj-3" value="" style="edgeStyle=orthogonalEdgeStyle;html=1;verticalAlign=bottom;endArrow=open;endSize=8;strokeColor=#ff0000;exitX=0.5;exitY=1;exitDx=0;exitDy=0;" edge="1" parent="mSVQlwnSNKmeRhDkc5FI-1" source="3DJVACBQ3_Y2VkQOyzgs-8">
          <mxGeometry relative="1" as="geometry">
            <mxPoint x="234" y="500" as="targetPoint" />
            <mxPoint x="234" y="460" as="sourcePoint" />
            <Array as="points">
              <mxPoint x="234" y="450" />
            </Array>
          </mxGeometry>
        </mxCell>
        <mxCell id="S9ly9e3inDHfq40TF6Mj-4" value="" style="edgeStyle=orthogonalEdgeStyle;html=1;verticalAlign=bottom;endArrow=open;endSize=8;strokeColor=#ff0000;entryX=0;entryY=0.5;entryDx=0;entryDy=0;" edge="1" parent="mSVQlwnSNKmeRhDkc5FI-1" target="S9ly9e3inDHfq40TF6Mj-0">
          <mxGeometry relative="1" as="geometry">
            <mxPoint x="149" y="600" as="targetPoint" />
            <mxPoint x="180" y="715" as="sourcePoint" />
            <Array as="points">
              <mxPoint x="149" y="715" />
              <mxPoint x="149" y="605" />
            </Array>
          </mxGeometry>
        </mxCell>
        <mxCell id="S9ly9e3inDHfq40TF6Mj-5" value="" style="edgeStyle=orthogonalEdgeStyle;html=1;verticalAlign=bottom;endArrow=open;endSize=8;strokeColor=#ff0000;exitX=0.495;exitY=1;exitDx=0;exitDy=0;exitPerimeter=0;" edge="1" parent="mSVQlwnSNKmeRhDkc5FI-1" source="S9ly9e3inDHfq40TF6Mj-0">
          <mxGeometry relative="1" as="geometry">
            <mxPoint x="234.5" y="685" as="targetPoint" />
            <mxPoint x="234.91" y="635" as="sourcePoint" />
            <Array as="points" />
          </mxGeometry>
        </mxCell>
        <mxCell id="S9ly9e3inDHfq40TF6Mj-9" value="" style="edgeStyle=orthogonalEdgeStyle;html=1;verticalAlign=bottom;endArrow=open;endSize=8;strokeColor=#ff0000;exitX=0.5;exitY=1;exitDx=0;exitDy=0;entryX=0;entryY=0;entryDx=0;entryDy=0;" edge="1" parent="mSVQlwnSNKmeRhDkc5FI-1" target="3DJVACBQ3_Y2VkQOyzgs-2">
          <mxGeometry relative="1" as="geometry">
            <mxPoint x="230.5" y="895" as="targetPoint" />
            <mxPoint x="240.63" y="845" as="sourcePoint" />
            <Array as="points">
              <mxPoint x="231" y="845" />
              <mxPoint x="231" y="882" />
              <mxPoint x="236" y="882" />
            </Array>
          </mxGeometry>
        </mxCell>
        <mxCell id="oCbn1jMaju2kKPx-30jL-1" value="Dohvati sliku ploce" style="rounded=1;whiteSpace=wrap;html=1;arcSize=40;fillColor=#f8cecc;strokeColor=#b85450;" vertex="1" parent="mSVQlwnSNKmeRhDkc5FI-1">
          <mxGeometry x="170.63" y="500" width="127.5" height="40" as="geometry" />
        </mxCell>
        <mxCell id="oCbn1jMaju2kKPx-30jL-2" value="" style="edgeStyle=orthogonalEdgeStyle;html=1;verticalAlign=bottom;endArrow=open;endSize=8;strokeColor=#ff0000;" edge="1" parent="mSVQlwnSNKmeRhDkc5FI-1" source="oCbn1jMaju2kKPx-30jL-1">
          <mxGeometry relative="1" as="geometry">
            <mxPoint x="233.79" y="585" as="targetPoint" />
            <mxPoint x="233.92" y="545" as="sourcePoint" />
            <Array as="points" />
          </mxGeometry>
        </mxCell>
        <mxCell id="oCbn1jMaju2kKPx-30jL-3" value="" style="edgeStyle=orthogonalEdgeStyle;html=1;verticalAlign=bottom;endArrow=open;endSize=8;strokeColor=#ff0000;exitX=0;exitY=0.5;exitDx=0;exitDy=0;entryX=0;entryY=0.5;entryDx=0;entryDy=0;" edge="1" parent="mSVQlwnSNKmeRhDkc5FI-1" source="b-x2M1_fkUvQBQFoWUMa-6" target="cydfw-H86_3NEy_80KlA-8">
          <mxGeometry relative="1" as="geometry">
            <mxPoint x="100" y="620" as="targetPoint" />
            <mxPoint x="177.5" y="834.9999999999998" as="sourcePoint" />
            <Array as="points">
              <mxPoint x="100" y="825" />
              <mxPoint x="100" y="80" />
            </Array>
          </mxGeometry>
        </mxCell>
      </root>
    </mxGraphModel>
  </diagram>
  <diagram name="Activity:Kraj igre" id="ES9_xjog_Mbw1qM0Pc6H">
    <mxGraphModel dx="1056" dy="567" grid="1" gridSize="10" guides="1" tooltips="1" connect="1" arrows="1" fold="1" page="1" pageScale="1" pageWidth="827" pageHeight="1169" math="0" shadow="0">
      <root>
        <mxCell id="4tA_K9r1kgb0l5-mDnU_-0" />
        <mxCell id="4tA_K9r1kgb0l5-mDnU_-1" parent="4tA_K9r1kgb0l5-mDnU_-0" />
        <mxCell id="4tA_K9r1kgb0l5-mDnU_-2" value="" style="ellipse;html=1;shape=startState;fillColor=#000000;strokeColor=#ff0000;" parent="4tA_K9r1kgb0l5-mDnU_-1" vertex="1">
          <mxGeometry x="235" y="40" width="30" height="30" as="geometry" />
        </mxCell>
        <mxCell id="4tA_K9r1kgb0l5-mDnU_-3" value="" style="edgeStyle=orthogonalEdgeStyle;html=1;verticalAlign=bottom;endArrow=open;endSize=8;strokeColor=#ff0000;" parent="4tA_K9r1kgb0l5-mDnU_-1" source="4tA_K9r1kgb0l5-mDnU_-2" edge="1">
          <mxGeometry relative="1" as="geometry">
            <mxPoint x="250" y="140" as="targetPoint" />
          </mxGeometry>
        </mxCell>
        <mxCell id="4tA_K9r1kgb0l5-mDnU_-4" value="Uklanjanje pijuna ako je dosao do kraja" style="rounded=1;whiteSpace=wrap;html=1;arcSize=40;fillColor=#f8cecc;strokeColor=#b85450;" parent="4tA_K9r1kgb0l5-mDnU_-1" vertex="1">
          <mxGeometry x="190" y="140" width="120" height="40" as="geometry" />
        </mxCell>
        <mxCell id="4tA_K9r1kgb0l5-mDnU_-5" value="" style="edgeStyle=orthogonalEdgeStyle;html=1;verticalAlign=bottom;endArrow=open;endSize=8;strokeColor=#ff0000;" parent="4tA_K9r1kgb0l5-mDnU_-1" source="4tA_K9r1kgb0l5-mDnU_-4" edge="1">
          <mxGeometry relative="1" as="geometry">
            <mxPoint x="250" y="250" as="targetPoint" />
          </mxGeometry>
        </mxCell>
        <mxCell id="4tA_K9r1kgb0l5-mDnU_-11" value="" style="ellipse;html=1;shape=endState;fillColor=#000000;strokeColor=#ff0000;" parent="4tA_K9r1kgb0l5-mDnU_-1" vertex="1">
          <mxGeometry x="235.01" y="660" width="30" height="30" as="geometry" />
        </mxCell>
        <mxCell id="4tA_K9r1kgb0l5-mDnU_-18" value="" style="edgeStyle=orthogonalEdgeStyle;html=1;verticalAlign=bottom;endArrow=open;endSize=8;strokeColor=#ff0000;" parent="4tA_K9r1kgb0l5-mDnU_-1" edge="1">
          <mxGeometry relative="1" as="geometry">
            <mxPoint x="250" y="480" as="targetPoint" />
            <mxPoint x="250" y="430" as="sourcePoint" />
          </mxGeometry>
        </mxCell>
        <mxCell id="Uu23bpQ2PHniW0JhlZ7e-0" value="Igrac nema vise pijuna" style="rhombus;whiteSpace=wrap;html=1;fillColor=#f8cecc;strokeColor=#b85450;direction=south;" vertex="1" parent="4tA_K9r1kgb0l5-mDnU_-1">
          <mxGeometry x="198.13" y="250" width="103.75" height="75" as="geometry" />
        </mxCell>
        <mxCell id="Uu23bpQ2PHniW0JhlZ7e-1" value="" style="edgeStyle=orthogonalEdgeStyle;html=1;verticalAlign=bottom;endArrow=open;endSize=8;strokeColor=#ff0000;entryX=1;entryY=0.5;entryDx=0;entryDy=0;" edge="1" parent="4tA_K9r1kgb0l5-mDnU_-1" target="4tA_K9r1kgb0l5-mDnU_-4">
          <mxGeometry relative="1" as="geometry">
            <mxPoint x="344" y="160" as="targetPoint" />
            <mxPoint x="300" y="290" as="sourcePoint" />
            <Array as="points">
              <mxPoint x="350" y="290" />
              <mxPoint x="350" y="160" />
            </Array>
          </mxGeometry>
        </mxCell>
        <mxCell id="Uu23bpQ2PHniW0JhlZ7e-2" value="False" style="text;html=1;align=center;verticalAlign=middle;resizable=0;points=[];autosize=1;" vertex="1" parent="4tA_K9r1kgb0l5-mDnU_-1">
          <mxGeometry x="310" y="130" width="40" height="20" as="geometry" />
        </mxCell>
        <mxCell id="Uu23bpQ2PHniW0JhlZ7e-3" value="Unesi broj mjesta igraca na kraju igre" style="rounded=1;whiteSpace=wrap;html=1;arcSize=40;fillColor=#f8cecc;strokeColor=#b85450;" vertex="1" parent="4tA_K9r1kgb0l5-mDnU_-1">
          <mxGeometry x="190.01" y="390" width="120" height="40" as="geometry" />
        </mxCell>
        <mxCell id="Uu23bpQ2PHniW0JhlZ7e-4" value="" style="edgeStyle=orthogonalEdgeStyle;html=1;verticalAlign=bottom;endArrow=open;endSize=8;strokeColor=#ff0000;" edge="1" parent="4tA_K9r1kgb0l5-mDnU_-1">
          <mxGeometry relative="1" as="geometry">
            <mxPoint x="250" y="390" as="targetPoint" />
            <mxPoint x="249.51" y="325" as="sourcePoint" />
            <Array as="points">
              <mxPoint x="249.51" y="345" />
              <mxPoint x="249.51" y="345" />
            </Array>
          </mxGeometry>
        </mxCell>
        <mxCell id="Uu23bpQ2PHniW0JhlZ7e-5" value="True" style="text;html=1;align=center;verticalAlign=middle;resizable=0;points=[];autosize=1;" vertex="1" parent="4tA_K9r1kgb0l5-mDnU_-1">
          <mxGeometry x="250" y="330" width="40" height="20" as="geometry" />
        </mxCell>
        <mxCell id="_6pUxnMZMjQaZYI33j7C-0" value="Prikaz mjesta" style="rounded=1;whiteSpace=wrap;html=1;arcSize=40;fillColor=#dae8fc;strokeColor=#6c8ebf;" vertex="1" parent="4tA_K9r1kgb0l5-mDnU_-1">
          <mxGeometry x="190.01" y="480" width="120" height="40" as="geometry" />
        </mxCell>
        <mxCell id="_6pUxnMZMjQaZYI33j7C-2" value="Kraj" style="rounded=1;whiteSpace=wrap;html=1;arcSize=40;fillColor=#f8cecc;strokeColor=#b85450;" vertex="1" parent="4tA_K9r1kgb0l5-mDnU_-1">
          <mxGeometry x="190.01" y="570" width="120" height="40" as="geometry" />
        </mxCell>
        <mxCell id="_6pUxnMZMjQaZYI33j7C-3" value="" style="edgeStyle=orthogonalEdgeStyle;html=1;verticalAlign=bottom;endArrow=open;endSize=8;strokeColor=#ff0000;" edge="1" parent="4tA_K9r1kgb0l5-mDnU_-1">
          <mxGeometry relative="1" as="geometry">
            <mxPoint x="249" y="570" as="targetPoint" />
            <mxPoint x="249" y="520" as="sourcePoint" />
          </mxGeometry>
        </mxCell>
        <mxCell id="_6pUxnMZMjQaZYI33j7C-4" value="" style="edgeStyle=orthogonalEdgeStyle;html=1;verticalAlign=bottom;endArrow=open;endSize=8;strokeColor=#ff0000;" edge="1" parent="4tA_K9r1kgb0l5-mDnU_-1">
          <mxGeometry relative="1" as="geometry">
            <mxPoint x="249" y="660" as="targetPoint" />
            <mxPoint x="249" y="610" as="sourcePoint" />
          </mxGeometry>
        </mxCell>
      </root>
    </mxGraphModel>
  </diagram>
</mxfile>
